<?xml version="1.0" standalone="no"?>
<!DOCTYPE svg PUBLIC "-//W3C//DTD SVG 20010904//EN"
 "http://www.w3.org/TR/2001/REC-SVG-20010904/DTD/svg10.dtd">
<svg version="1.0" xmlns="http://www.w3.org/2000/svg"
 width="200.000000pt" height="200.000000pt" viewBox="0 0 200.000000 200.000000"
 preserveAspectRatio="xMidYMid meet">
<metadata>
Created by potrace 1.11, written by Peter Selinger 2001-2013
</metadata>
<g transform="translate(0.000000,200.000000) scale(0.100000,-0.100000)"
fill="#000000" stroke="none">
<path d="M988 1893 c-1 -5 -43 -44 -93 -88 -49 -44 -95 -84 -101 -90 -6 -5
-46 -41 -89 -80 -43 -38 -83 -75 -89 -80 -11 -10 -239 -215 -421 -379 -49 -45
-112 -102 -140 -128 l-50 -48 248 0 247 0 0 -450 0 -450 500 0 500 0 0 450 0
450 245 0 c135 0 245 3 244 8 0 4 -51 51 -112 105 -62 54 -134 118 -162 143
-73 66 -202 182 -260 234 -27 25 -52 47 -55 50 -3 3 -50 45 -105 94 -55 49
-107 96 -116 105 -33 33 -162 146 -174 154 -8 4 -15 4 -17 0z m373 -480 c1
-10 2 -106 3 -213 l1 -195 30 0 c35 0 47 -12 35 -36 -5 -9 -6 -19 -2 -23 3 -4
1 -10 -6 -14 -6 -5 -13 -17 -15 -27 -1 -11 -6 -26 -10 -32 -5 -7 -5 -17 -2
-23 3 -5 1 -10 -5 -10 -7 0 -9 -7 -6 -16 3 -8 2 -13 -3 -10 -5 3 -12 -9 -16
-27 -4 -17 -9 -34 -10 -37 -1 -3 -7 -18 -14 -35 -7 -16 -14 -37 -16 -45 -2 -8
-4 -16 -5 -17 -2 -2 -3 -6 -4 -10 -1 -5 -7 -18 -14 -30 -6 -12 -13 -30 -15
-40 -2 -10 -10 -31 -16 -48 -16 -36 -44 -126 -45 -140 -1 -12 -61 -22 -93 -17
-18 3 -27 21 -53 101 -17 53 -35 105 -40 116 -5 11 -13 34 -18 50 -7 19 -11
24 -12 13 -3 -20 -6 -35 -10 -43 -1 -3 -4 -9 -5 -15 -1 -5 -4 -12 -5 -15 -1
-3 -3 -8 -5 -12 -1 -5 -7 -21 -13 -36 -7 -16 -10 -32 -7 -37 3 -5 1 -10 -5
-12 -5 -1 -11 -12 -13 -23 -7 -32 -28 -85 -35 -86 -38 -4 -84 -4 -90 0 -4 4
-27 60 -51 126 -23 66 -47 131 -53 145 -6 14 -11 28 -10 33 1 4 -2 7 -6 7 -4
0 -8 8 -9 18 0 9 -15 55 -33 102 -37 98 -49 133 -59 176 l-8 31 39 -4 39 -4
-1 143 c-1 79 -1 176 0 216 l0 72 345 0 c321 0 345 -1 346 -17z"/>
<path d="M830 1130 l0 -140 -25 0 c-14 0 -25 -2 -25 -5 0 -4 31 -92 47 -135 3
-8 7 -21 9 -28 1 -8 6 -21 10 -30 4 -9 8 -20 9 -24 2 -5 3 -9 5 -10 1 -2 4
-16 6 -33 3 -16 6 -31 8 -32 1 -2 15 39 30 90 16 50 33 101 38 112 8 18 15 44
17 67 1 4 8 14 17 22 14 15 12 16 -18 16 l-34 0 1 135 1 135 -48 0 -48 0 0
-140z"/>
<path d="M1109 1253 c0 -10 -1 -71 -1 -135 l-1 -118 -24 0 c-21 0 -24 -3 -19
-22 4 -13 9 -35 12 -50 4 -16 10 -28 15 -28 5 0 8 -3 7 -7 -2 -10 13 -75 20
-88 4 -5 7 -16 8 -23 2 -8 6 -21 10 -30 9 -22 11 -29 13 -49 1 -22 9 -14 15
17 2 14 23 78 45 142 23 65 41 120 41 123 0 3 -11 5 -25 5 l-25 0 0 140 0 140
-45 0 c-36 0 -45 -4 -46 -17z"/>
</g>
</svg>
